<svg width="328" height="365" viewBox="0 0 328 365" fill="none" xmlns="http://www.w3.org/2000/svg">
<g filter="url(#filter0_d)">
<path d="M323 0H4L32 319L159.5 356H160H167L295 319L323.5 0H323Z" fill="#E65100"/>
<path d="M290.5 30H163V329L268 299L290.5 30Z" fill="#FF6D00"/>
<path d="M247 107L249.5 69H78L85 182.5H204L201 223L163 237L124.5 223L123 201.5H85L89.5 253.5L163 277L237 253.5L243 144.5H120L117 107H247Z" fill="white"/>
<path d="M163 106.493V69H78L85.1687 183H163V144.493H121.012L117.94 106.493H163Z" fill="#EEEEEE"/>
</g>
<defs>
<filter id="filter0_d" x="0" y="0" width="327.5" height="365" filterUnits="userSpaceOnUse" color-interpolation-filters="sRGB">
<feFlood flood-opacity="0" result="BackgroundImageFix"/>
<feColorMatrix in="SourceAlpha" type="matrix" values="0 0 0 0 0 0 0 0 0 0 0 0 0 0 0 0 0 0 127 0"/>
<feOffset dy="5"/>
<feGaussianBlur stdDeviation="2"/>
<feColorMatrix type="matrix" values="0 0 0 0 0 0 0 0 0 0 0 0 0 0 0 0 0 0 0.25 0"/>
<feBlend mode="normal" in2="BackgroundImageFix" result="effect1_dropShadow"/>
<feBlend mode="normal" in="SourceGraphic" in2="effect1_dropShadow" result="shape"/>
</filter>
</defs>
</svg>
