<svg width="64" height="79" viewBox="0 0 64 79" fill="none" xmlns="http://www.w3.org/2000/svg">
<g filter="url(#filter0_d)">
<path d="M49.3359 41.8438C49.3359 47.6797 47.4844 52.7773 43.7812 57.1367C40.5 61.0039 36.0586 64.0156 30.457 66.1719C25.3711 68.1406 20.0859 69.125 14.6016 69.125C14.3906 69.125 14.2266 69.125 14.1094 69.125C13.8281 69.125 13.5 69.1133 13.125 69.0898C12.7734 69.0898 12.5977 68.9844 12.5977 68.7734C12.5977 68.6328 12.75 68.4219 13.0547 68.1406C14.4375 66.9922 15.4688 65.4688 16.1484 63.5703C16.8516 61.6719 17.2031 59.2344 17.2031 56.2578V47.6797C13.2891 47.2578 10.2188 45.9336 7.99219 43.707C5.50781 41.2227 4.26562 37.7656 4.26562 33.3359C4.26562 28.8125 6.41016 25.0391 10.6992 22.0156C14.7539 19.1563 19.4297 17.7266 24.7266 17.7266C31.6875 17.7266 37.4648 19.8477 42.0586 24.0898C46.9102 28.5664 49.3359 34.4844 49.3359 41.8438ZM44.3438 40.0156C44.3438 34.3672 42.5625 29.6328 39 25.8125C35.2969 21.8281 30.5391 19.8359 24.7266 19.8359C20.0391 19.8359 15.9727 21.0195 12.5273 23.3867C8.75391 25.9883 6.86719 29.3516 6.86719 33.4766C6.86719 37.1328 7.85156 39.9688 9.82031 41.9844C11.5078 43.6953 13.9688 44.8438 17.2031 45.4297V32.4219C17.2031 31.6016 16.9102 31.0508 16.3242 30.7695C16.043 30.6758 15.7852 30.582 15.5508 30.4883C15.3164 30.3945 15.1992 30.2305 15.1992 29.9961C15.1992 29.832 15.2812 29.7031 15.4453 29.6094C15.6094 29.5156 16.1016 29.3047 16.9219 28.9766C17.7422 28.6484 18.5859 28.2734 19.4531 27.8516C20.1094 27.5234 21.082 26.9961 22.3711 26.2695C22.793 26.0352 23.1328 25.8594 23.3906 25.7422C23.7656 25.6016 23.9531 25.707 23.9531 26.0586C23.9531 26.1992 23.9297 26.3047 23.8828 26.375C23.3203 27.1484 22.8867 27.8281 22.582 28.4141C22.2773 29 22.125 29.5391 22.125 30.0312V45.1484C23.6016 45.1484 25.2539 44.4102 27.082 42.9336C29.1211 41.2695 30.1406 39.5234 30.1406 37.6953C30.1406 36.9453 29.9883 36.3242 29.6836 35.832C29.3789 35.3398 28.9922 35.0938 28.5234 35.0938C28.0078 35.0938 27.5977 35.1523 27.293 35.2695C27.0117 35.3633 26.8359 35.4922 26.7656 35.6562C26.625 35.9609 26.4844 36.1133 26.3438 36.1133C26.2266 36.1133 26.1328 36.0078 26.0625 35.7969C26.0391 35.7031 26.0273 35.5391 26.0273 35.3047C26.0273 35.0938 26.0625 34.8828 26.1328 34.6719C26.6719 33.0781 27.7969 32.2812 29.5078 32.2812C30.8203 32.2812 31.8281 32.7734 32.5312 33.7578C33.1406 34.625 33.4453 35.75 33.4453 37.1328C33.4453 39.4531 32.25 41.668 29.8594 43.7773C27.4922 45.8867 24.9141 47.1172 22.125 47.4688V55.625C22.125 57.7109 21.7969 59.7031 21.1406 61.6016C20.5078 63.5 19.6641 65.0938 18.6094 66.3828C22.8047 66.3828 26.8125 65.375 30.6328 63.3594C34.6875 61.2031 37.9219 58.2266 40.3359 54.4297C43.0078 50.2109 44.3438 45.4062 44.3438 40.0156Z" fill="white"/>
</g>
<defs>
<filter id="filter0_d" x="0.265625" y="17.7266" width="53.0703" height="60.3984" filterUnits="userSpaceOnUse" color-interpolation-filters="sRGB">
<feFlood flood-opacity="0" result="BackgroundImageFix"/>
<feColorMatrix in="SourceAlpha" type="matrix" values="0 0 0 0 0 0 0 0 0 0 0 0 0 0 0 0 0 0 127 0"/>
<feOffset dy="5"/>
<feGaussianBlur stdDeviation="2"/>
<feColorMatrix type="matrix" values="0 0 0 0 0 0 0 0 0 0 0 0 0 0 0 0 0 0 0.25 0"/>
<feBlend mode="normal" in2="BackgroundImageFix" result="effect1_dropShadow"/>
<feBlend mode="normal" in="SourceGraphic" in2="effect1_dropShadow" result="shape"/>
</filter>
</defs>
</svg>
