<svg width="439" height="158" viewBox="0 0 439 158" fill="none" xmlns="http://www.w3.org/2000/svg">
<g filter="url(#filter0_d)">
<g filter="url(#filter1_d)">
<path d="M94.6719 83.6875C94.6719 95.3594 90.9688 105.555 83.5625 114.273C77 122.008 68.1172 128.031 56.9141 132.344C46.7422 136.281 36.1719 138.25 25.2031 138.25C24.7812 138.25 24.4531 138.25 24.2188 138.25C23.6562 138.25 23 138.227 22.25 138.18C21.5469 138.18 21.1953 137.969 21.1953 137.547C21.1953 137.266 21.5 136.844 22.1094 136.281C24.875 133.984 26.9375 130.938 28.2969 127.141C29.7031 123.344 30.4062 118.469 30.4062 112.516V95.3594C22.5781 94.5156 16.4375 91.8672 11.9844 87.4141C7.01563 82.4453 4.53125 75.5312 4.53125 66.6719C4.53125 57.625 8.82031 50.0781 17.3984 44.0312C25.5078 38.3125 34.8594 35.4531 45.4531 35.4531C59.375 35.4531 70.9297 39.6953 80.1172 48.1797C89.8203 57.1328 94.6719 68.9688 94.6719 83.6875ZM84.6875 80.0312C84.6875 68.7344 81.125 59.2656 74 51.625C66.5938 43.6563 57.0781 39.6719 45.4531 39.6719C36.0781 39.6719 27.9453 42.0391 21.0547 46.7734C13.5078 51.9766 9.73438 58.7031 9.73438 66.9531C9.73438 74.2656 11.7031 79.9375 15.6406 83.9688C19.0156 87.3906 23.9375 89.6875 30.4062 90.8594V64.8438C30.4062 63.2031 29.8203 62.1016 28.6484 61.5391C28.0859 61.3516 27.5703 61.1641 27.1016 60.9766C26.6328 60.7891 26.3984 60.4609 26.3984 59.9922C26.3984 59.6641 26.5625 59.4063 26.8906 59.2188C27.2188 59.0312 28.2031 58.6094 29.8438 57.9531C31.4844 57.2969 33.1719 56.5469 34.9062 55.7031C36.2188 55.0469 38.1641 53.9922 40.7422 52.5391C41.5859 52.0703 42.2656 51.7187 42.7812 51.4844C43.5312 51.2031 43.9062 51.4141 43.9062 52.1172C43.9062 52.3984 43.8594 52.6094 43.7656 52.75C42.6406 54.2969 41.7734 55.6562 41.1641 56.8281C40.5547 58 40.25 59.0781 40.25 60.0625V90.2969C43.2031 90.2969 46.5078 88.8203 50.1641 85.8672C54.2422 82.5391 56.2812 79.0469 56.2812 75.3906C56.2812 73.8906 55.9766 72.6484 55.3672 71.6641C54.7578 70.6797 53.9844 70.1875 53.0469 70.1875C52.0156 70.1875 51.1953 70.3047 50.5859 70.5391C50.0234 70.7266 49.6719 70.9844 49.5312 71.3125C49.25 71.9219 48.9688 72.2266 48.6875 72.2266C48.4531 72.2266 48.2656 72.0156 48.125 71.5938C48.0781 71.4062 48.0547 71.0781 48.0547 70.6094C48.0547 70.1875 48.125 69.7656 48.2656 69.3438C49.3438 66.1562 51.5938 64.5625 55.0156 64.5625C57.6406 64.5625 59.6562 65.5469 61.0625 67.5156C62.2812 69.25 62.8906 71.5 62.8906 74.2656C62.8906 78.9062 60.5 83.3359 55.7188 87.5547C50.9844 91.7734 45.8281 94.2344 40.25 94.9375V111.25C40.25 115.422 39.5938 119.406 38.2812 123.203C37.0156 127 35.3281 130.188 33.2188 132.766C41.6094 132.766 49.625 130.75 57.2656 126.719C65.375 122.406 71.8438 116.453 76.6719 108.859C82.0156 100.422 84.6875 90.8125 84.6875 80.0312Z" fill="white"/>
</g>
<g filter="url(#filter2_d)">
<path d="M95.0625 128.125C99.1875 127.854 102.823 126.865 105.969 125.156L107.344 127.781C104.198 130.385 100.615 132.167 96.5938 133.125C95.3854 133.396 94.2812 133.531 93.2812 133.531C85.4271 133.531 80.4792 130.062 78.4375 123.125C77.7708 120.896 77.4375 118.302 77.4375 115.344C77.4375 112.365 77.9167 109.625 78.875 107.125C79.8542 104.625 81.1354 102.5 82.7188 100.75C84.3229 98.9792 86.1562 97.6146 88.2188 96.6562C90.2812 95.6979 92.4167 95.2188 94.625 95.2188C103.479 95.2188 107.906 100.281 107.906 110.406V110.719C107.906 113.365 107.594 114.688 106.969 114.688H83.9688C83.9688 119.042 84.9271 122.354 86.8438 124.625C88.7812 126.896 91.5208 128.062 95.0625 128.125ZM100.781 110.688C100.802 110.25 100.812 109.917 100.812 109.688V108.656C100.812 103.76 99.4583 100.75 96.75 99.625C95.7708 99.2083 94.7188 99 93.5938 99C92.4896 99 91.5521 99.1667 90.7812 99.5C90.0104 99.8333 89.2812 100.292 88.5938 100.875C87.9271 101.458 87.3125 102.146 86.75 102.938C86.1875 103.708 85.6979 104.562 85.2812 105.5C84.4062 107.438 83.9688 109.417 83.9688 111.438L100.781 110.688ZM147.875 99.2812C147.438 99.2188 147.104 99.1875 146.875 99.1875C146.646 99.1875 146.396 99.3333 146.125 99.625C145.854 99.8958 145.583 100.281 145.312 100.781C145.042 101.281 144.771 101.875 144.5 102.562L143.562 104.812C143.458 105.083 143.198 105.688 142.781 106.625L131.156 132.656L131.406 132.75L129 133.531L128.75 133.5L115.594 103.969C115.198 103.052 114.865 102.312 114.594 101.75C114.323 101.167 113.917 100.594 113.375 100.031C112.833 99.4479 112.229 99.1562 111.562 99.1562H111.312C111.167 99.1562 111.031 99.1667 110.906 99.1875L111.344 95.8125H127.094L126.625 99.125C126.292 99.1875 125.865 99.2188 125.344 99.2188C124.823 99.2188 124.406 99.25 124.094 99.3125C123.802 99.375 123.5 99.5 123.188 99.6875C122.438 100.188 122.062 100.938 122.062 101.938C122.062 102.542 122.312 103.521 122.812 104.875C123.917 107.708 124.76 109.812 125.344 111.188L129.562 120.812C129.958 121.667 130.229 122.292 130.375 122.688C130.5 123.042 130.635 123.708 130.781 124.688L138.719 104.781C139.177 103.448 139.406 102.448 139.406 101.781C139.406 100.635 138.906 99.8333 137.906 99.375C137.552 99.2292 137.094 99.1562 136.531 99.1562C135.99 99.1562 135.333 99.2188 134.562 99.3438L135.094 95.8125H148.469L147.875 99.2812ZM169.812 128.125C173.938 127.854 177.573 126.865 180.719 125.156L182.094 127.781C178.948 130.385 175.365 132.167 171.344 133.125C170.135 133.396 169.031 133.531 168.031 133.531C160.177 133.531 155.229 130.062 153.188 123.125C152.521 120.896 152.188 118.302 152.188 115.344C152.188 112.365 152.667 109.625 153.625 107.125C154.604 104.625 155.885 102.5 157.469 100.75C159.073 98.9792 160.906 97.6146 162.969 96.6562C165.031 95.6979 167.167 95.2188 169.375 95.2188C178.229 95.2188 182.656 100.281 182.656 110.406V110.719C182.656 113.365 182.344 114.688 181.719 114.688H158.719C158.719 119.042 159.677 122.354 161.594 124.625C163.531 126.896 166.271 128.062 169.812 128.125ZM175.531 110.688C175.552 110.25 175.562 109.917 175.562 109.688V108.656C175.562 103.76 174.208 100.75 171.5 99.625C170.521 99.2083 169.469 99 168.344 99C167.24 99 166.302 99.1667 165.531 99.5C164.76 99.8333 164.031 100.292 163.344 100.875C162.677 101.458 162.062 102.146 161.5 102.938C160.938 103.708 160.448 104.562 160.031 105.5C159.156 107.438 158.719 109.417 158.719 111.438L175.531 110.688ZM200.969 79.7188C200.531 81.9896 200.312 86.5521 200.312 93.4062V95.6562L200.375 125.562C200.375 127.271 200.5 128.333 200.75 128.75C201.146 129.375 201.844 129.688 202.844 129.688C204.24 129.688 205.458 129.573 206.5 129.344L206 133H187.906L188.438 129.688C190.604 129.688 191.99 129.448 192.594 128.969C193.219 128.49 193.615 128 193.781 127.5C193.969 126.979 194.062 126.344 194.062 125.594V90.3438C194.062 88.5729 193.948 87.4688 193.719 87.0312C193.51 86.5938 193.312 86.2708 193.125 86.0625C192.958 85.8333 192.688 85.6562 192.312 85.5312C191.958 85.3854 191.542 85.2917 191.062 85.25C190.396 85.1667 189.292 85.125 187.75 85.125L188.125 81.5625L200.969 79.7188ZM211.094 114.125C211.094 111.312 211.615 108.729 212.656 106.375C213.698 104 215.094 101.979 216.844 100.312C220.448 96.9167 224.875 95.2188 230.125 95.2188C235.208 95.2188 239.24 96.9062 242.219 100.281C245.073 103.51 246.5 107.719 246.5 112.906C246.5 118.802 244.646 123.729 240.938 127.688C237.292 131.542 232.802 133.469 227.469 133.469C222.219 133.469 218.125 131.604 215.188 127.875C212.458 124.438 211.094 119.854 211.094 114.125ZM228.875 129.5C230.458 129.5 231.854 129.219 233.062 128.656C234.292 128.094 235.354 127.229 236.25 126.062C238.208 123.583 239.188 120 239.188 115.312C239.188 110.312 238.229 106.344 236.312 103.406C234.375 100.469 231.74 99 228.406 99C225.469 99 223.083 100.146 221.25 102.438C219.229 104.958 218.219 108.573 218.219 113.281C218.219 118.177 219.167 122.083 221.062 125C223 128 225.604 129.5 228.875 129.5ZM264.156 134.781L264.219 140.938C264.219 142.771 264.323 143.875 264.531 144.25C264.74 144.625 265 144.854 265.312 144.938C265.646 145.042 266.188 145.094 266.938 145.094C267.688 145.094 268.417 145.062 269.125 145C270.958 144.875 271.979 144.74 272.188 144.594L271.625 148.875H252.188L252.688 145.406C254.625 145.406 255.865 145.115 256.406 144.531C257.406 143.49 257.906 141.5 257.906 138.562V106.5C257.906 103.979 257.458 102.354 256.562 101.625C256 101.167 254.792 100.938 252.938 100.938L253.438 96.9375L264.375 95.1875C264.333 95.625 264.292 96.0833 264.25 96.5625C264.208 97.0417 264.167 97.5729 264.125 98.1562C264.104 98.7188 264.073 99.3125 264.031 99.9375C266.635 97.7917 269.583 96.3333 272.875 95.5625C273.917 95.3333 274.927 95.2188 275.906 95.2188C276.885 95.2188 277.938 95.3438 279.062 95.5938C280.188 95.8438 281.271 96.2604 282.312 96.8438C283.375 97.4062 284.365 98.1458 285.281 99.0625C286.198 99.9583 287 101.062 287.688 102.375C289.167 105.208 289.906 108.729 289.906 112.938C289.906 118.604 288.271 123.396 285 127.312C281.583 131.417 277.208 133.469 271.875 133.469C268.833 133.469 266.271 133.177 264.188 132.594C264.167 132.948 264.156 133.312 264.156 133.688V134.781ZM264.219 126.344C265.073 127.698 266.979 128.667 269.938 129.25C270.771 129.417 271.854 129.5 273.188 129.5C274.542 129.5 275.906 129.135 277.281 128.406C278.677 127.677 279.833 126.635 280.75 125.281C282.521 122.615 283.406 118.76 283.406 113.719C283.406 107.448 281.51 103.375 277.719 101.5C276.344 100.833 274.948 100.5 273.531 100.5C272.115 100.5 270.948 100.625 270.031 100.875C269.115 101.125 268.25 101.417 267.438 101.75C265.729 102.458 264.635 103.083 264.156 103.625L264.219 103.594V126.344ZM313.938 128.125C318.062 127.854 321.698 126.865 324.844 125.156L326.219 127.781C323.073 130.385 319.49 132.167 315.469 133.125C314.26 133.396 313.156 133.531 312.156 133.531C304.302 133.531 299.354 130.062 297.312 123.125C296.646 120.896 296.312 118.302 296.312 115.344C296.312 112.365 296.792 109.625 297.75 107.125C298.729 104.625 300.01 102.5 301.594 100.75C303.198 98.9792 305.031 97.6146 307.094 96.6562C309.156 95.6979 311.292 95.2188 313.5 95.2188C322.354 95.2188 326.781 100.281 326.781 110.406V110.719C326.781 113.365 326.469 114.688 325.844 114.688H302.844C302.844 119.042 303.802 122.354 305.719 124.625C307.656 126.896 310.396 128.062 313.938 128.125ZM319.656 110.688C319.677 110.25 319.688 109.917 319.688 109.688V108.656C319.688 103.76 318.333 100.75 315.625 99.625C314.646 99.2083 313.594 99 312.469 99C311.365 99 310.427 99.1667 309.656 99.5C308.885 99.8333 308.156 100.292 307.469 100.875C306.802 101.458 306.188 102.146 305.625 102.938C305.062 103.708 304.573 104.562 304.156 105.5C303.281 107.438 302.844 109.417 302.844 111.438L319.656 110.688ZM344.688 128.844C345 129.219 345.406 129.458 345.906 129.562C346.427 129.646 347.5 129.688 349.125 129.688C350.75 129.688 352.021 129.562 352.938 129.312L352.719 133H332.594L333.031 129.688C334.865 129.688 336.042 129.365 336.562 128.719C337.5 127.552 337.969 125.49 337.969 122.531V107.469C337.969 104.656 337.677 102.917 337.094 102.25C336.448 101.5 335.031 101.062 332.844 100.938L333.281 96.9375L344.5 95.25C344.292 96.7708 344.188 98.5104 344.188 100.469C346.375 98.3854 348.938 96.8125 351.875 95.75C352.917 95.3958 353.906 95.2188 354.844 95.2188C358.844 95.2188 360.844 97 360.844 100.562C360.844 102.667 360.542 104.927 359.938 107.344C359.896 107.51 359.865 107.625 359.844 107.688C359.823 107.729 359.812 107.76 359.812 107.781H354.594L354.781 106.312L354.906 105.062C354.948 104.667 354.969 104.25 354.969 103.812C354.969 103.375 354.927 102.938 354.844 102.5C354.781 102.062 354.646 101.698 354.438 101.406C354.062 100.844 353.427 100.562 352.531 100.562C351.635 100.562 350.781 100.698 349.969 100.969C349.177 101.24 348.406 101.562 347.656 101.938C346.135 102.729 344.958 103.542 344.125 104.375L344.188 104.344L344.219 125.312C344.219 127.292 344.375 128.469 344.688 128.844Z" fill="white"/>
<path d="M95.0625 128.125L95.0537 128.625L95.0745 128.625L95.0953 128.624L95.0625 128.125ZM105.969 125.156L106.412 124.924L106.176 124.475L105.73 124.717L105.969 125.156ZM107.344 127.781L107.663 128.166L107.975 127.908L107.787 127.549L107.344 127.781ZM96.5938 133.125L96.7031 133.613L96.7097 133.611L96.5938 133.125ZM78.4375 123.125L78.9172 122.984L78.9165 122.982L78.4375 123.125ZM78.875 107.125L78.4094 106.943L78.4081 106.946L78.875 107.125ZM82.7188 100.75L82.3482 100.414L82.348 100.415L82.7188 100.75ZM83.9688 114.688V114.188H83.4688V114.688H83.9688ZM86.8438 124.625L86.4617 124.948L86.4634 124.95L86.8438 124.625ZM100.781 110.688L100.804 111.187L101.259 111.167L101.281 110.711L100.781 110.688ZM96.75 99.625L96.5542 100.085L96.5582 100.087L96.75 99.625ZM88.5938 100.875L88.2702 100.494L88.2645 100.499L88.5938 100.875ZM86.75 102.938L87.1539 103.232L87.1576 103.227L86.75 102.938ZM85.2812 105.5L85.7369 105.706L85.7382 105.703L85.2812 105.5ZM83.9688 111.438H83.4688V111.96L83.991 111.937L83.9688 111.438ZM95.0953 128.624C99.2813 128.349 102.989 127.343 106.207 125.596L105.73 124.717C102.657 126.386 99.0937 127.359 95.0297 127.626L95.0953 128.624ZM105.526 125.388L106.901 128.013L107.787 127.549L106.412 124.924L105.526 125.388ZM107.025 127.396C103.939 129.951 100.425 131.698 96.4778 132.639L96.7097 133.611C100.804 132.636 104.457 130.82 107.663 128.166L107.025 127.396ZM96.4844 132.637C95.3038 132.902 94.237 133.031 93.2812 133.031V134.031C94.3255 134.031 95.467 133.89 96.7031 133.613L96.4844 132.637ZM93.2812 133.031C89.4263 133.031 86.3346 132.18 83.9667 130.52C81.6028 128.863 79.9125 126.366 78.9172 122.984L77.9578 123.266C79.0041 126.821 80.8087 129.528 83.3927 131.339C85.9727 133.148 89.2821 134.031 93.2812 134.031V133.031ZM78.9165 122.982C78.2669 120.81 77.9375 118.266 77.9375 115.344H76.9375C76.9375 118.338 77.2747 120.982 77.9585 123.268L78.9165 122.982ZM77.9375 115.344C77.9375 112.419 78.4078 109.741 79.3419 107.304L78.4081 106.946C77.4256 109.509 76.9375 112.31 76.9375 115.344H77.9375ZM79.3406 107.307C80.3007 104.856 81.552 102.785 83.0895 101.085L82.348 100.415C80.7189 102.215 79.4077 104.394 78.4094 106.943L79.3406 107.307ZM83.0893 101.086C84.6509 99.3618 86.4306 98.0384 88.4294 97.1097L88.0081 96.2028C85.8819 97.1907 83.9949 98.5965 82.3482 100.414L83.0893 101.086ZM88.4294 97.1097C90.428 96.1811 92.4917 95.7188 94.625 95.7188V94.7188C92.3417 94.7188 90.1345 95.2147 88.0081 96.2028L88.4294 97.1097ZM94.625 95.7188C98.9563 95.7188 102.119 96.9539 104.21 99.3448C106.312 101.748 107.406 105.406 107.406 110.406H108.406C108.406 105.282 107.287 101.345 104.962 98.6865C102.626 96.0149 99.1479 94.7188 94.625 94.7188V95.7188ZM107.406 110.406V110.719H108.406V110.406H107.406ZM107.406 110.719C107.406 112.032 107.328 112.977 107.185 113.58C107.113 113.885 107.034 114.061 106.971 114.15C106.917 114.227 106.916 114.188 106.969 114.188V115.188C107.334 115.188 107.607 114.983 107.787 114.729C107.958 114.487 108.074 114.167 108.158 113.81C108.328 113.091 108.406 112.051 108.406 110.719H107.406ZM106.969 114.188H83.9688V115.188H106.969V114.188ZM83.4688 114.688C83.4688 119.106 84.4403 122.553 86.4617 124.947L87.2258 124.303C85.4139 122.156 84.4688 118.977 84.4688 114.688H83.4688ZM86.4634 124.95C88.5113 127.35 91.3981 128.56 95.0537 128.625L95.0713 127.625C91.6436 127.565 89.0512 126.442 87.2241 124.3L86.4634 124.95ZM101.281 110.711C101.302 110.272 101.312 109.929 101.312 109.688H100.312C100.312 109.905 100.303 110.228 100.282 110.664L101.281 110.711ZM101.312 109.688V108.656H100.312V109.688H101.312ZM101.312 108.656C101.312 103.707 99.9437 100.41 96.9418 99.1633L96.5582 100.087C98.973 101.09 100.312 103.814 100.312 108.656H101.312ZM96.9458 99.1649C95.9012 98.7204 94.7821 98.5 93.5938 98.5V99.5C94.6554 99.5 95.6405 99.6962 96.5542 100.085L96.9458 99.1649ZM93.5938 98.5C92.4418 98.5 91.4327 98.6736 90.5828 99.0411L90.9797 99.9589C91.6715 99.6598 92.5374 99.5 93.5938 99.5V98.5ZM90.5828 99.0411C89.7635 99.3954 88.9926 99.8808 88.2703 100.494L88.9172 101.256C89.5699 100.702 90.2574 100.271 90.9797 99.9589L90.5828 99.0411ZM88.2645 100.499C87.5658 101.11 86.9254 101.827 86.3424 102.648L87.1576 103.227C87.6996 102.464 88.2884 101.807 88.923 101.251L88.2645 100.499ZM86.3461 102.643C85.7612 103.444 85.2543 104.329 84.8243 105.297L85.7382 105.703C86.1415 104.796 86.6138 103.972 87.1539 103.232L86.3461 102.643ZM84.8256 105.294C83.9229 107.293 83.4688 109.342 83.4688 111.438H84.4688C84.4688 109.491 84.8896 107.582 85.7369 105.706L84.8256 105.294ZM83.991 111.937L100.804 111.187L100.759 110.188L83.9465 110.938L83.991 111.937ZM147.875 99.2812L147.804 99.7762L148.286 99.845L148.368 99.3656L147.875 99.2812ZM146.125 99.625L146.479 99.9786L146.485 99.972L146.491 99.9652L146.125 99.625ZM144.5 102.562L144.962 102.755L144.965 102.746L144.5 102.562ZM143.562 104.812L143.101 104.62L143.096 104.633L143.562 104.812ZM142.781 106.625L143.238 106.829L143.238 106.828L142.781 106.625ZM131.156 132.656L130.7 132.452L130.483 132.938L130.981 133.124L131.156 132.656ZM131.406 132.75L131.561 133.226L132.921 132.784L131.582 132.282L131.406 132.75ZM129 133.531L128.938 134.027L129.048 134.041L129.154 134.007L129 133.531ZM128.75 133.5L128.293 133.703L128.408 133.961L128.688 133.996L128.75 133.5ZM115.594 103.969L115.135 104.167L115.137 104.172L115.594 103.969ZM114.594 101.75L114.14 101.961L114.143 101.967L114.594 101.75ZM113.375 100.031L113.009 100.372L113.015 100.378L113.375 100.031ZM110.906 99.1875L110.41 99.1232L110.324 99.7915L110.988 99.6807L110.906 99.1875ZM111.344 95.8125V95.3125H110.904L110.848 95.7482L111.344 95.8125ZM127.094 95.8125L127.589 95.8826L127.669 95.3125H127.094V95.8125ZM126.625 99.125L126.717 99.6164L127.07 99.5503L127.12 99.1951L126.625 99.125ZM124.094 99.3125L123.996 98.8222L123.989 98.8236L124.094 99.3125ZM123.188 99.6875L122.93 99.2588L122.92 99.2649L122.91 99.2715L123.188 99.6875ZM122.812 104.875L122.343 105.048L122.347 105.057L122.812 104.875ZM125.344 111.188L124.883 111.383L124.886 111.388L125.344 111.188ZM129.562 120.812L129.104 121.013L129.109 121.023L129.562 120.812ZM130.375 122.688L130.847 122.521L130.844 122.515L130.375 122.688ZM130.781 124.688L130.287 124.761L130.56 126.593L131.246 124.873L130.781 124.688ZM138.719 104.781L139.183 104.966L139.188 104.955L139.192 104.944L138.719 104.781ZM137.906 99.375L138.115 98.9205L138.106 98.9164L138.097 98.9127L137.906 99.375ZM134.562 99.3438L134.068 99.2694L133.966 99.947L134.643 99.8373L134.562 99.3438ZM135.094 95.8125V95.3125H134.663L134.599 95.7381L135.094 95.8125ZM148.469 95.8125L148.962 95.8969L149.062 95.3125H148.469V95.8125ZM147.946 98.7863C147.502 98.7229 147.14 98.6875 146.875 98.6875V99.6875C147.068 99.6875 147.373 99.7146 147.804 99.7762L147.946 98.7863ZM146.875 98.6875C146.433 98.6875 146.059 98.9617 145.759 99.2848L146.491 99.9652C146.733 99.705 146.858 99.6875 146.875 99.6875V98.6875ZM145.771 99.2714C145.454 99.5886 145.157 100.019 144.873 100.543L145.752 101.019C146.01 100.543 146.254 100.203 146.479 99.9786L145.771 99.2714ZM144.873 100.543C144.59 101.065 144.311 101.678 144.035 102.379L144.965 102.746C145.231 102.072 145.493 101.497 145.752 101.019L144.873 100.543ZM144.038 102.37L143.101 104.62L144.024 105.005L144.962 102.755L144.038 102.37ZM143.096 104.633C142.997 104.89 142.743 105.481 142.324 106.422L143.238 106.828C143.653 105.894 143.919 105.277 144.029 104.992L143.096 104.633ZM142.325 106.421L130.7 132.452L131.613 132.86L143.238 106.829L142.325 106.421ZM130.981 133.124L131.231 133.218L131.582 132.282L131.332 132.188L130.981 133.124ZM131.252 132.274L128.846 133.056L129.154 134.007L131.561 133.226L131.252 132.274ZM129.062 133.035L128.812 133.004L128.688 133.996L128.938 134.027L129.062 133.035ZM129.207 133.297L116.05 103.765L115.137 104.172L128.293 133.703L129.207 133.297ZM116.053 103.771C115.656 102.851 115.319 102.104 115.044 101.533L114.143 101.967C114.41 102.521 114.74 103.253 115.135 104.167L116.053 103.771ZM115.047 101.539C114.749 100.896 114.307 100.279 113.735 99.6844L113.015 100.378C113.526 100.909 113.897 101.437 114.14 101.961L115.047 101.539ZM113.741 99.691C113.125 99.0273 112.395 98.6562 111.562 98.6562V99.6562C112.063 99.6562 112.542 99.8686 113.009 100.371L113.741 99.691ZM111.562 98.6562H111.312V99.6562H111.562V98.6562ZM111.312 98.6562C111.143 98.6562 110.98 98.6683 110.824 98.6943L110.988 99.6807C111.083 99.665 111.19 99.6562 111.312 99.6562V98.6562ZM111.402 99.2518L111.84 95.8768L110.848 95.7482L110.41 99.1232L111.402 99.2518ZM111.344 96.3125H127.094V95.3125H111.344V96.3125ZM126.599 95.7424L126.13 99.0549L127.12 99.1951L127.589 95.8826L126.599 95.7424ZM126.533 98.6336C126.241 98.6882 125.848 98.7188 125.344 98.7188V99.7188C125.881 99.7188 126.342 99.6868 126.717 99.6164L126.533 98.6336ZM125.344 98.7188C124.808 98.7188 124.354 98.7505 123.996 98.8222L124.192 99.8028C124.458 99.7495 124.838 99.7188 125.344 99.7188V98.7188ZM123.989 98.8236C123.633 98.8999 123.28 99.049 122.93 99.2588L123.445 100.116C123.72 99.951 123.971 99.8501 124.199 99.8014L123.989 98.8236ZM122.91 99.2715C122.004 99.8755 121.562 100.792 121.562 101.938H122.562C122.562 101.083 122.871 100.499 123.465 100.104L122.91 99.2715ZM121.562 101.938C121.562 102.64 121.844 103.694 122.343 105.048L123.282 104.702C122.781 103.347 122.562 102.443 122.562 101.938H121.562ZM122.347 105.057C123.451 107.891 124.297 110.001 124.883 111.383L125.804 110.992C125.224 109.624 124.382 107.526 123.278 104.693L122.347 105.057ZM124.886 111.388L129.105 121.013L130.02 120.612L125.802 110.987L124.886 111.388ZM129.109 121.023C129.504 121.876 129.768 122.485 129.906 122.86L130.844 122.515C130.691 122.098 130.413 121.458 130.016 120.602L129.109 121.023ZM129.904 122.854C130.01 123.157 130.14 123.779 130.287 124.761L131.276 124.614C131.13 123.638 130.99 122.926 130.846 122.521L129.904 122.854ZM131.246 124.873L139.183 104.966L138.254 104.596L130.317 124.502L131.246 124.873ZM139.192 104.944C139.652 103.603 139.906 102.536 139.906 101.781H138.906C138.906 102.359 138.702 103.293 138.246 104.619L139.192 104.944ZM139.906 101.781C139.906 101.135 139.765 100.552 139.456 100.056C139.146 99.5587 138.689 99.1836 138.115 98.9205L137.698 99.8295C138.124 100.025 138.417 100.28 138.607 100.585C138.798 100.891 138.906 101.282 138.906 101.781H139.906ZM138.097 98.9127C137.661 98.7332 137.131 98.6562 136.531 98.6562V99.6562C137.056 99.6562 137.443 99.7252 137.716 99.8373L138.097 98.9127ZM136.531 98.6562C135.954 98.6562 135.269 98.7226 134.482 98.8502L134.643 99.8373C135.397 99.7149 136.025 99.6562 136.531 99.6562V98.6562ZM135.057 99.4181L135.588 95.8869L134.599 95.7381L134.068 99.2694L135.057 99.4181ZM135.094 96.3125H148.469V95.3125H135.094V96.3125ZM147.976 95.7281L147.382 99.1969L148.368 99.3656L148.962 95.8969L147.976 95.7281ZM169.812 128.125L169.804 128.625L169.824 128.625L169.845 128.624L169.812 128.125ZM180.719 125.156L181.162 124.924L180.926 124.475L180.48 124.717L180.719 125.156ZM182.094 127.781L182.413 128.166L182.725 127.908L182.537 127.549L182.094 127.781ZM171.344 133.125L171.453 133.613L171.46 133.611L171.344 133.125ZM153.188 123.125L153.667 122.984L153.667 122.982L153.188 123.125ZM153.625 107.125L153.159 106.943L153.158 106.946L153.625 107.125ZM157.469 100.75L157.098 100.414L157.098 100.415L157.469 100.75ZM158.719 114.688V114.188H158.219V114.688H158.719ZM161.594 124.625L161.212 124.948L161.213 124.95L161.594 124.625ZM175.531 110.688L175.554 111.187L176.009 111.167L176.031 110.711L175.531 110.688ZM171.5 99.625L171.304 100.085L171.308 100.087L171.5 99.625ZM163.344 100.875L163.02 100.494L163.014 100.499L163.344 100.875ZM161.5 102.938L161.904 103.232L161.908 103.227L161.5 102.938ZM160.031 105.5L160.487 105.706L160.488 105.703L160.031 105.5ZM158.719 111.438H158.219V111.96L158.741 111.937L158.719 111.438ZM169.845 128.624C174.031 128.349 177.739 127.343 180.957 125.596L180.48 124.717C177.407 126.386 173.844 127.359 169.78 127.626L169.845 128.624ZM180.276 125.388L181.651 128.013L182.537 127.549L181.162 124.924L180.276 125.388ZM181.775 127.396C178.689 129.951 175.175 131.698 171.228 132.639L171.46 133.611C175.554 132.636 179.207 130.82 182.413 128.166L181.775 127.396ZM171.234 132.637C170.054 132.902 168.987 133.031 168.031 133.031V134.031C169.076 134.031 170.217 133.89 171.453 133.613L171.234 132.637ZM168.031 133.031C164.176 133.031 161.085 132.18 158.717 130.52C156.353 128.863 154.663 126.366 153.667 122.984L152.708 123.266C153.754 126.821 155.559 129.528 158.143 131.339C160.723 133.148 164.032 134.031 168.031 134.031V133.031ZM153.667 122.982C153.017 120.81 152.688 118.266 152.688 115.344H151.688C151.688 118.338 152.025 120.982 152.708 123.268L153.667 122.982ZM152.688 115.344C152.688 112.419 153.158 109.741 154.092 107.304L153.158 106.946C152.176 109.509 151.688 112.31 151.688 115.344H152.688ZM154.091 107.307C155.051 104.856 156.302 102.785 157.84 101.085L157.098 100.415C155.469 102.215 154.158 104.394 153.159 106.943L154.091 107.307ZM157.839 101.086C159.401 99.3618 161.181 98.0384 163.179 97.1097L162.758 96.2028C160.632 97.1907 158.745 98.5965 157.098 100.414L157.839 101.086ZM163.179 97.1097C165.178 96.1811 167.242 95.7188 169.375 95.7188V94.7188C167.092 94.7188 164.885 95.2147 162.758 96.2028L163.179 97.1097ZM169.375 95.7188C173.706 95.7188 176.869 96.9539 178.96 99.3448C181.062 101.748 182.156 105.406 182.156 110.406H183.156C183.156 105.282 182.037 101.345 179.712 98.6865C177.376 96.0149 173.898 94.7188 169.375 94.7188V95.7188ZM182.156 110.406V110.719H183.156V110.406H182.156ZM182.156 110.719C182.156 112.032 182.078 112.977 181.935 113.58C181.863 113.885 181.784 114.061 181.721 114.15C181.667 114.227 181.666 114.188 181.719 114.188V115.188C182.084 115.188 182.357 114.983 182.537 114.729C182.708 114.487 182.824 114.167 182.908 113.81C183.078 113.091 183.156 112.051 183.156 110.719H182.156ZM181.719 114.188H158.719V115.188H181.719V114.188ZM158.219 114.688C158.219 119.106 159.19 122.553 161.212 124.947L161.976 124.303C160.164 122.156 159.219 118.977 159.219 114.688H158.219ZM161.213 124.95C163.261 127.35 166.148 128.56 169.804 128.625L169.821 127.625C166.394 127.565 163.801 126.442 161.974 124.3L161.213 124.95ZM176.031 110.711C176.052 110.272 176.062 109.929 176.062 109.688H175.062C175.062 109.905 175.053 110.228 175.032 110.664L176.031 110.711ZM176.062 109.688V108.656H175.062V109.688H176.062ZM176.062 108.656C176.062 103.707 174.694 100.41 171.692 99.1633L171.308 100.087C173.723 101.09 175.062 103.814 175.062 108.656H176.062ZM171.696 99.1649C170.651 98.7204 169.532 98.5 168.344 98.5V99.5C169.405 99.5 170.39 99.6962 171.304 100.085L171.696 99.1649ZM168.344 98.5C167.192 98.5 166.183 98.6736 165.333 99.0411L165.73 99.9589C166.422 99.6598 167.287 99.5 168.344 99.5V98.5ZM165.333 99.0411C164.513 99.3954 163.743 99.8808 163.02 100.494L163.667 101.256C164.32 100.702 165.007 100.271 165.73 99.9589L165.333 99.0411ZM163.014 100.499C162.316 101.11 161.675 101.827 161.092 102.648L161.908 103.227C162.45 102.464 163.038 101.807 163.673 101.251L163.014 100.499ZM161.096 102.643C160.511 103.444 160.004 104.329 159.574 105.297L160.488 105.703C160.892 104.796 161.364 103.972 161.904 103.232L161.096 102.643ZM159.576 105.294C158.673 107.293 158.219 109.342 158.219 111.438H159.219C159.219 109.491 159.64 107.582 160.487 105.706L159.576 105.294ZM158.741 111.937L175.554 111.187L175.509 110.188L158.696 110.938L158.741 111.937ZM200.969 79.7188L201.46 79.8133L201.593 79.1241L200.898 79.2238L200.969 79.7188ZM200.312 95.6562L199.812 95.6563L199.813 95.6573L200.312 95.6562ZM200.375 125.562L200.875 125.562L200.875 125.561L200.375 125.562ZM200.75 128.75L200.321 129.007L200.328 129.018L200.75 128.75ZM206.5 129.344L206.995 129.411L207.092 128.701L206.393 128.855L206.5 129.344ZM206 133V133.5H206.436L206.495 133.068L206 133ZM187.906 133L187.413 132.921L187.32 133.5H187.906V133ZM188.438 129.688V129.188H188.011L187.944 129.608L188.438 129.688ZM192.594 128.969L192.289 128.572L192.283 128.577L192.594 128.969ZM193.781 127.5L193.311 127.331L193.307 127.342L193.781 127.5ZM193.719 87.0312L193.267 87.2462L193.271 87.2548L193.276 87.2633L193.719 87.0312ZM193.125 86.0625L192.721 86.3566L192.736 86.3776L192.753 86.397L193.125 86.0625ZM192.312 85.5312L192.122 85.9936L192.138 86.0001L192.154 86.0056L192.312 85.5312ZM191.062 85.25L191 85.7461L191.01 85.7473L191.019 85.7481L191.062 85.25ZM187.75 85.125L187.253 85.0727L187.195 85.625H187.75V85.125ZM188.125 81.5625L188.054 81.0676L187.669 81.1229L187.628 81.5102L188.125 81.5625ZM200.478 79.6242C200.03 81.9495 199.812 86.5598 199.812 93.4062H200.812C200.812 86.5444 201.033 82.0296 201.46 79.8133L200.478 79.6242ZM199.812 93.4062V95.6562H200.812V93.4062H199.812ZM199.813 95.6573L199.875 125.564L200.875 125.561L200.812 95.6552L199.813 95.6573ZM199.875 125.562C199.875 126.426 199.906 127.14 199.972 127.699C200.035 128.236 200.137 128.7 200.321 129.007L201.179 128.493C201.113 128.383 201.027 128.108 200.965 127.582C200.906 127.078 200.875 126.407 200.875 125.562H199.875ZM200.328 129.018C200.846 129.836 201.739 130.188 202.844 130.188V129.188C201.948 129.188 201.446 128.914 201.172 128.482L200.328 129.018ZM202.844 130.188C204.265 130.188 205.522 130.071 206.607 129.832L206.393 128.855C205.395 129.075 204.214 129.188 202.844 129.188V130.188ZM206.005 129.276L205.505 132.932L206.495 133.068L206.995 129.411L206.005 129.276ZM206 132.5H187.906V133.5H206V132.5ZM188.4 133.079L188.931 129.767L187.944 129.608L187.413 132.921L188.4 133.079ZM188.438 130.188C189.536 130.188 190.455 130.127 191.187 130C191.904 129.876 192.503 129.679 192.904 129.36L192.283 128.577C192.081 128.738 191.684 128.9 191.016 129.015C190.363 129.128 189.506 129.188 188.438 129.188V130.188ZM192.898 129.366C193.565 128.854 194.045 128.289 194.256 127.658L193.307 127.342C193.184 127.711 192.872 128.125 192.29 128.572L192.898 129.366ZM194.252 127.669C194.464 127.079 194.562 126.382 194.562 125.594H193.562C193.562 126.305 193.473 126.88 193.311 127.331L194.252 127.669ZM194.562 125.594V90.3438H193.562V125.594H194.562ZM194.562 90.3438C194.562 89.4499 194.534 88.7121 194.474 88.1359C194.416 87.5799 194.324 87.1099 194.162 86.7992L193.276 87.2633C193.342 87.3901 193.422 87.6909 193.479 88.2391C193.534 88.7671 193.562 89.4667 193.562 90.3438H194.562ZM194.17 86.8163C193.954 86.362 193.731 85.989 193.497 85.728L192.753 86.397C192.894 86.5527 193.067 86.8255 193.267 87.2462L194.17 86.8163ZM193.529 85.7684C193.281 85.4275 192.907 85.2022 192.471 85.0569L192.154 86.0056C192.468 86.1103 192.635 86.2391 192.721 86.3566L193.529 85.7684ZM192.503 85.0689C192.092 84.8996 191.623 84.7969 191.106 84.7519L191.019 85.7481C191.46 85.7865 191.825 85.8713 192.122 85.9936L192.503 85.0689ZM191.125 84.7539C190.424 84.6663 189.293 84.625 187.75 84.625V85.625C189.29 85.625 190.367 85.667 191 85.7461L191.125 84.7539ZM188.247 85.1773L188.622 81.6148L187.628 81.5102L187.253 85.0727L188.247 85.1773ZM188.196 82.0574L201.04 80.2137L200.898 79.2238L188.054 81.0676L188.196 82.0574ZM212.656 106.375L213.113 106.577L213.114 106.576L212.656 106.375ZM216.844 100.312L216.501 99.9486L216.499 99.9504L216.844 100.312ZM242.219 100.281L241.844 100.612L241.844 100.612L242.219 100.281ZM240.938 127.688L241.301 128.031L241.302 128.029L240.938 127.688ZM215.188 127.875L215.58 127.566L215.579 127.564L215.188 127.875ZM233.062 128.656L232.854 128.202L232.851 128.203L233.062 128.656ZM236.25 126.062L235.858 125.753L235.853 125.758L236.25 126.062ZM236.312 103.406L236.731 103.133L236.73 103.131L236.312 103.406ZM221.25 102.438L221.64 102.75L221.64 102.75L221.25 102.438ZM221.062 125L221.483 124.729L221.482 124.728L221.062 125ZM211.594 114.125C211.594 111.376 212.103 108.862 213.113 106.577L212.199 106.173C211.127 108.596 210.594 111.249 210.594 114.125H211.594ZM213.114 106.576C214.131 104.257 215.49 102.292 217.189 100.675L216.499 99.9504C214.697 101.666 213.265 103.743 212.198 106.174L213.114 106.576ZM217.187 100.676C220.692 97.3736 224.994 95.7188 230.125 95.7188V94.7188C224.756 94.7188 220.204 96.4597 216.501 99.9486L217.187 100.676ZM230.125 95.7188C235.086 95.7188 238.972 97.3592 241.844 100.612L242.594 99.9504C239.507 96.4533 235.331 94.7188 230.125 94.7188V95.7188ZM241.844 100.612C244.602 103.732 246 107.815 246 112.906H247C247 107.623 245.544 103.288 242.593 99.9501L241.844 100.612ZM246 112.906C246 118.687 244.186 123.488 240.573 127.346L241.302 128.029C245.105 123.97 247 118.917 247 112.906H246ZM240.574 127.344C237.023 131.098 232.665 132.969 227.469 132.969V133.969C232.939 133.969 237.56 131.986 241.301 128.031L240.574 127.344ZM227.469 132.969C222.353 132.969 218.412 131.161 215.58 127.566L214.795 128.184C217.838 132.048 222.084 133.969 227.469 133.969V132.969ZM215.579 127.564C212.939 124.239 211.594 119.776 211.594 114.125H210.594C210.594 119.932 211.978 124.636 214.796 128.186L215.579 127.564ZM228.875 130C230.518 130 231.988 129.708 233.274 129.11L232.851 128.203C231.721 128.729 230.399 129 228.875 129V130ZM233.271 129.111C234.58 128.512 235.706 127.593 236.647 126.367L235.853 125.758C235.003 126.866 234.003 127.676 232.854 128.202L233.271 129.111ZM236.642 126.372C238.697 123.771 239.688 120.06 239.688 115.312H238.688C238.688 119.94 237.72 123.395 235.858 125.753L236.642 126.372ZM239.688 115.312C239.688 110.255 238.719 106.179 236.731 103.133L235.894 103.679C237.739 106.508 238.688 110.37 238.688 115.312H239.688ZM236.73 103.131C234.706 100.063 231.919 98.5 228.406 98.5V99.5C231.561 99.5 234.044 100.875 235.895 103.682L236.73 103.131ZM228.406 98.5C225.317 98.5 222.788 99.7147 220.86 102.125L221.64 102.75C223.379 100.577 225.62 99.5 228.406 99.5V98.5ZM220.86 102.125C218.742 104.767 217.719 108.51 217.719 113.281H218.719C218.719 108.636 219.717 105.15 221.64 102.75L220.86 102.125ZM217.719 113.281C217.719 118.236 218.677 122.248 220.643 125.272L221.482 124.728C219.656 121.919 218.719 118.118 218.719 113.281H217.719ZM220.642 125.271C222.662 128.398 225.417 130 228.875 130V129C225.792 129 223.338 127.602 221.483 124.729L220.642 125.271ZM264.156 134.781H263.656L263.656 134.786L264.156 134.781ZM264.219 140.938H264.719L264.719 140.932L264.219 140.938ZM265.312 144.938L265.462 144.46L265.452 144.457L265.441 144.454L265.312 144.938ZM269.125 145L269.091 144.501L269.081 144.502L269.125 145ZM272.188 144.594L272.683 144.659L272.831 143.533L271.901 144.184L272.188 144.594ZM271.625 148.875V149.375H272.064L272.121 148.94L271.625 148.875ZM252.188 148.875L251.693 148.804L251.61 149.375H252.188V148.875ZM252.688 145.406V144.906H252.254L252.193 145.335L252.688 145.406ZM256.406 144.531L256.046 144.185L256.04 144.191L256.406 144.531ZM256.562 101.625L256.247 102.013L256.247 102.013L256.562 101.625ZM252.938 100.938L252.441 100.875L252.371 101.438H252.938V100.938ZM253.438 96.9375L253.359 96.4438L252.988 96.5031L252.941 96.8755L253.438 96.9375ZM264.375 95.1875L264.873 95.2349L264.934 94.5917L264.296 94.6938L264.375 95.1875ZM264.125 98.1562L263.626 98.1206L263.626 98.1292L263.625 98.1377L264.125 98.1562ZM264.031 99.9375L263.532 99.9042L263.455 101.06L264.349 100.323L264.031 99.9375ZM272.875 95.5625L272.768 95.0741L272.761 95.0757L272.875 95.5625ZM282.312 96.8438L282.068 97.2801L282.079 97.2856L282.312 96.8438ZM285.281 99.0625L284.928 99.4161L284.932 99.4201L285.281 99.0625ZM287.688 102.375L288.131 102.144L288.13 102.143L287.688 102.375ZM285 127.312L284.616 126.992L284.616 126.993L285 127.312ZM264.188 132.594L264.322 132.112L263.725 131.945L263.688 132.564L264.188 132.594ZM264.219 126.344H263.719V126.488L263.796 126.611L264.219 126.344ZM269.938 129.25L270.036 128.76L270.034 128.759L269.938 129.25ZM277.281 128.406L277.05 127.963L277.047 127.965L277.281 128.406ZM280.75 125.281L281.164 125.562L281.167 125.558L280.75 125.281ZM277.719 101.5L277.94 101.052L277.937 101.05L277.719 101.5ZM267.438 101.75L267.248 101.287L267.246 101.288L267.438 101.75ZM264.156 103.625L263.782 103.294L264.38 104.072L264.156 103.625ZM264.219 103.594H264.719V102.785L263.995 103.147L264.219 103.594ZM263.656 134.786L263.719 140.943L264.719 140.932L264.656 134.776L263.656 134.786ZM263.719 140.938C263.719 141.861 263.745 142.613 263.799 143.188C263.826 143.475 263.861 143.725 263.905 143.935C263.948 144.138 264.006 144.334 264.094 144.493L264.968 144.007C264.952 143.978 264.919 143.896 264.884 143.729C264.85 143.569 264.82 143.359 264.795 143.094C264.745 142.564 264.719 141.847 264.719 140.938H263.719ZM264.094 144.493C264.346 144.946 264.701 145.292 265.184 145.421L265.441 144.454C265.299 144.416 265.133 144.304 264.968 144.007L264.094 144.493ZM265.163 145.415C265.574 145.543 266.181 145.594 266.938 145.594V144.594C266.194 144.594 265.717 144.54 265.462 144.46L265.163 145.415ZM266.938 145.594C267.701 145.594 268.445 145.562 269.169 145.498L269.081 144.502C268.388 144.563 267.674 144.594 266.938 144.594V145.594ZM269.159 145.499C270.079 145.436 270.805 145.37 271.331 145.3C271.594 145.266 271.815 145.229 271.99 145.189C272.141 145.154 272.333 145.102 272.474 145.003L271.901 144.184C271.938 144.158 271.925 144.178 271.767 144.214C271.635 144.244 271.448 144.276 271.2 144.309C270.705 144.375 270.004 144.439 269.091 144.501L269.159 145.499ZM271.692 144.529L271.129 148.81L272.121 148.94L272.683 144.659L271.692 144.529ZM271.625 148.375H252.188V149.375H271.625V148.375ZM252.682 148.946L253.182 145.478L252.193 145.335L251.693 148.804L252.682 148.946ZM252.688 145.906C253.677 145.906 254.513 145.832 255.185 145.674C255.848 145.518 256.405 145.268 256.773 144.871L256.04 144.191C255.866 144.378 255.532 144.565 254.956 144.701C254.388 144.834 253.635 144.906 252.688 144.906V145.906ZM256.767 144.878C257.912 143.684 258.406 141.515 258.406 138.562H257.406C257.406 141.485 256.9 143.295 256.046 144.185L256.767 144.878ZM258.406 138.562V106.5H257.406V138.562H258.406ZM258.406 106.5C258.406 105.215 258.293 104.129 258.052 103.258C257.813 102.389 257.436 101.691 256.878 101.237L256.247 102.013C256.585 102.288 256.88 102.767 257.088 103.523C257.296 104.277 257.406 105.265 257.406 106.5H258.406ZM256.878 101.237C256.502 100.931 255.964 100.739 255.328 100.618C254.681 100.496 253.882 100.438 252.938 100.438V101.438C253.847 101.438 254.579 101.494 255.141 101.601C255.713 101.709 256.06 101.861 256.247 102.013L256.878 101.237ZM253.434 101L253.934 96.9995L252.941 96.8755L252.441 100.875L253.434 101ZM253.516 97.4312L264.454 95.6812L264.296 94.6938L253.359 96.4438L253.516 97.4312ZM263.877 95.1401C263.835 95.5791 263.794 96.0388 263.752 96.5192L264.748 96.6058C264.79 96.1279 264.831 95.6709 264.873 95.2349L263.877 95.1401ZM263.752 96.5192C263.71 97.0014 263.668 97.5353 263.626 98.1206L264.624 98.1919C264.665 97.6106 264.707 97.0819 264.748 96.6058L263.752 96.5192ZM263.625 98.1377C263.605 98.6948 263.574 99.2836 263.532 99.9042L264.53 99.9708C264.572 99.3414 264.604 98.7427 264.625 98.1748L263.625 98.1377ZM264.349 100.323C266.894 98.2265 269.772 96.8027 272.989 96.0493L272.761 95.0757C269.395 95.864 266.377 97.3568 263.713 99.5516L264.349 100.323ZM272.982 96.0508C273.992 95.8287 274.966 95.7188 275.906 95.7188V94.7188C274.888 94.7188 273.841 94.8379 272.768 95.0742L272.982 96.0508ZM275.906 95.7188C276.843 95.7188 277.859 95.8384 278.954 96.0818L279.171 95.1057C278.016 94.8491 276.928 94.7188 275.906 94.7188V95.7188ZM278.954 96.0818C280.03 96.3209 281.068 96.7196 282.068 97.28L282.557 96.4075C281.474 95.8012 280.345 95.3666 279.171 95.1057L278.954 96.0818ZM282.079 97.2856C283.094 97.8231 284.044 98.5319 284.928 99.4161L285.635 98.7089C284.686 97.7598 283.656 96.9894 282.546 96.4019L282.079 97.2856ZM284.932 99.4201C285.806 100.274 286.578 101.334 287.245 102.607L288.13 102.143C287.422 100.791 286.59 99.6427 285.631 98.7049L284.932 99.4201ZM287.244 102.606C288.676 105.349 289.406 108.785 289.406 112.938H290.406C290.406 108.673 289.657 105.067 288.131 102.144L287.244 102.606ZM289.406 112.938C289.406 118.501 287.804 123.175 284.616 126.992L285.384 127.633C288.738 123.616 290.406 118.708 290.406 112.938H289.406ZM284.616 126.993C281.294 130.983 277.06 132.969 271.875 132.969V133.969C277.357 133.969 281.873 131.851 285.384 127.632L284.616 126.993ZM271.875 132.969C268.862 132.969 266.348 132.679 264.322 132.112L264.053 133.075C266.194 133.675 268.805 133.969 271.875 133.969V132.969ZM263.688 132.564C263.667 132.929 263.656 133.303 263.656 133.688H264.656C264.656 133.322 264.666 132.967 264.687 132.623L263.688 132.564ZM263.656 133.688V134.781H264.656V133.688H263.656ZM263.796 126.611C264.766 128.149 266.855 129.152 269.841 129.741L270.034 128.759C267.103 128.182 265.38 127.247 264.642 126.077L263.796 126.611ZM269.839 129.74C270.718 129.916 271.838 130 273.188 130V129C271.871 129 270.824 128.917 270.036 128.76L269.839 129.74ZM273.188 130C274.635 130 276.079 129.61 277.516 128.848L277.047 127.965C275.733 128.661 274.449 129 273.188 129V130ZM277.513 128.849C278.985 128.08 280.203 126.982 281.164 125.562L280.336 125.001C279.464 126.289 278.369 127.274 277.05 127.963L277.513 128.849ZM281.167 125.558C283.015 122.775 283.906 118.807 283.906 113.719H282.906C282.906 118.714 282.027 122.455 280.333 125.005L281.167 125.558ZM283.906 113.719C283.906 107.361 281.979 103.049 277.94 101.052L277.497 101.948C281.042 103.701 282.906 107.535 282.906 113.719H283.906ZM277.937 101.05C276.499 100.353 275.029 100 273.531 100V101C274.867 101 276.188 101.314 277.501 101.95L277.937 101.05ZM273.531 100C272.09 100 270.875 100.127 269.9 100.393L270.163 101.357C271.021 101.123 272.14 101 273.531 101V100ZM269.9 100.393C268.965 100.648 268.081 100.946 267.248 101.287L267.627 102.213C268.419 101.888 269.264 101.602 270.163 101.357L269.9 100.393ZM267.246 101.288C266.38 101.647 265.659 101.989 265.088 102.316C264.523 102.639 264.075 102.962 263.782 103.294L264.531 103.956C264.717 103.746 265.055 103.486 265.584 103.184C266.106 102.886 266.786 102.561 267.629 102.212L267.246 101.288ZM264.38 104.072L264.442 104.041L263.995 103.147L263.933 103.178L264.38 104.072ZM263.719 103.594V126.344H264.719V103.594H263.719ZM313.938 128.125L313.929 128.625L313.949 128.625L313.97 128.624L313.938 128.125ZM324.844 125.156L325.287 124.924L325.051 124.475L324.605 124.717L324.844 125.156ZM326.219 127.781L326.538 128.166L326.85 127.908L326.662 127.549L326.219 127.781ZM315.469 133.125L315.578 133.613L315.585 133.611L315.469 133.125ZM297.312 123.125L297.792 122.984L297.792 122.982L297.312 123.125ZM297.75 107.125L297.284 106.943L297.283 106.946L297.75 107.125ZM301.594 100.75L301.223 100.414L301.223 100.415L301.594 100.75ZM302.844 114.688V114.188H302.344V114.688H302.844ZM305.719 124.625L305.337 124.948L305.338 124.95L305.719 124.625ZM319.656 110.688L319.679 111.187L320.134 111.167L320.156 110.711L319.656 110.688ZM315.625 99.625L315.429 100.085L315.433 100.087L315.625 99.625ZM307.469 100.875L307.145 100.494L307.139 100.499L307.469 100.875ZM305.625 102.938L306.029 103.232L306.033 103.227L305.625 102.938ZM304.156 105.5L304.612 105.706L304.613 105.703L304.156 105.5ZM302.844 111.438H302.344V111.96L302.866 111.937L302.844 111.438ZM313.97 128.624C318.156 128.349 321.864 127.343 325.082 125.596L324.605 124.717C321.532 126.386 317.969 127.359 313.905 127.626L313.97 128.624ZM324.401 125.388L325.776 128.013L326.662 127.549L325.287 124.924L324.401 125.388ZM325.9 127.396C322.814 129.951 319.3 131.698 315.353 132.639L315.585 133.611C319.679 132.636 323.332 130.82 326.538 128.166L325.9 127.396ZM315.359 132.637C314.179 132.902 313.112 133.031 312.156 133.031V134.031C313.201 134.031 314.342 133.89 315.578 133.613L315.359 132.637ZM312.156 133.031C308.301 133.031 305.21 132.18 302.842 130.52C300.478 128.863 298.788 126.366 297.792 122.984L296.833 123.266C297.879 126.821 299.684 129.528 302.268 131.339C304.848 133.148 308.157 134.031 312.156 134.031V133.031ZM297.792 122.982C297.142 120.81 296.812 118.266 296.812 115.344H295.812C295.812 118.338 296.15 120.982 296.833 123.268L297.792 122.982ZM296.812 115.344C296.812 112.419 297.283 109.741 298.217 107.304L297.283 106.946C296.301 109.509 295.812 112.31 295.812 115.344H296.812ZM298.216 107.307C299.176 104.856 300.427 102.785 301.965 101.085L301.223 100.415C299.594 102.215 298.283 104.394 297.284 106.943L298.216 107.307ZM301.964 101.086C303.526 99.3618 305.306 98.0384 307.304 97.1097L306.883 96.2028C304.757 97.1907 302.87 98.5965 301.223 100.414L301.964 101.086ZM307.304 97.1097C309.303 96.1811 311.367 95.7188 313.5 95.7188V94.7188C311.217 94.7188 309.01 95.2147 306.883 96.2028L307.304 97.1097ZM313.5 95.7188C317.831 95.7188 320.994 96.9539 323.085 99.3448C325.187 101.748 326.281 105.406 326.281 110.406H327.281C327.281 105.282 326.162 101.345 323.837 98.6865C321.501 96.0149 318.023 94.7188 313.5 94.7188V95.7188ZM326.281 110.406V110.719H327.281V110.406H326.281ZM326.281 110.719C326.281 112.032 326.203 112.977 326.06 113.58C325.988 113.885 325.909 114.061 325.846 114.15C325.792 114.227 325.791 114.188 325.844 114.188V115.188C326.209 115.188 326.482 114.983 326.662 114.729C326.833 114.487 326.949 114.167 327.033 113.81C327.203 113.091 327.281 112.051 327.281 110.719H326.281ZM325.844 114.188H302.844V115.188H325.844V114.188ZM302.344 114.688C302.344 119.106 303.315 122.553 305.337 124.947L306.101 124.303C304.289 122.156 303.344 118.977 303.344 114.688H302.344ZM305.338 124.95C307.386 127.35 310.273 128.56 313.929 128.625L313.946 127.625C310.519 127.565 307.926 126.442 306.099 124.3L305.338 124.95ZM320.156 110.711C320.177 110.272 320.188 109.929 320.188 109.688H319.188C319.188 109.905 319.178 110.228 319.157 110.664L320.156 110.711ZM320.188 109.688V108.656H319.188V109.688H320.188ZM320.188 108.656C320.188 103.707 318.819 100.41 315.817 99.1633L315.433 100.087C317.848 101.09 319.188 103.814 319.188 108.656H320.188ZM315.821 99.1649C314.776 98.7204 313.657 98.5 312.469 98.5V99.5C313.53 99.5 314.515 99.6962 315.429 100.085L315.821 99.1649ZM312.469 98.5C311.317 98.5 310.308 98.6736 309.458 99.0411L309.855 99.9589C310.547 99.6598 311.412 99.5 312.469 99.5V98.5ZM309.458 99.0411C308.638 99.3954 307.868 99.8808 307.145 100.494L307.792 101.256C308.445 100.702 309.132 100.271 309.855 99.9589L309.458 99.0411ZM307.139 100.499C306.441 101.11 305.8 101.827 305.217 102.648L306.033 103.227C306.575 102.464 307.163 101.807 307.798 101.251L307.139 100.499ZM305.221 102.643C304.636 103.444 304.129 104.329 303.699 105.297L304.613 105.703C305.017 104.796 305.489 103.972 306.029 103.232L305.221 102.643ZM303.701 105.294C302.798 107.293 302.344 109.342 302.344 111.438H303.344C303.344 109.491 303.765 107.582 304.612 105.706L303.701 105.294ZM302.866 111.937L319.679 111.187L319.634 110.188L302.821 110.938L302.866 111.937ZM345.906 129.562L345.804 130.052L345.816 130.054L345.827 130.056L345.906 129.562ZM352.938 129.312L353.437 129.342L353.478 128.647L352.806 128.83L352.938 129.312ZM352.719 133V133.5H353.19L353.218 133.03L352.719 133ZM332.594 133L332.098 132.935L332.023 133.5H332.594V133ZM333.031 129.688V129.188H332.593L332.536 129.622L333.031 129.688ZM336.562 128.719L336.952 129.033L336.952 129.032L336.562 128.719ZM337.094 102.25L336.715 102.576L336.717 102.579L337.094 102.25ZM332.844 100.938L332.347 100.883L332.289 101.407L332.815 101.437L332.844 100.938ZM333.281 96.9375L333.207 96.4431L332.826 96.5003L332.784 96.8831L333.281 96.9375ZM344.5 95.25L344.995 95.3179L345.086 94.6562L344.426 94.7556L344.5 95.25ZM344.188 100.469H343.688V101.635L344.532 100.831L344.188 100.469ZM351.875 95.75L351.714 95.2765L351.705 95.2798L351.875 95.75ZM359.938 107.344L360.423 107.465L359.938 107.344ZM359.844 107.688L360.291 107.911L360.307 107.879L360.318 107.846L359.844 107.688ZM359.812 107.781V108.281H360.312V107.781H359.812ZM354.594 107.781L354.098 107.718L354.026 108.281H354.594V107.781ZM354.781 106.312L355.277 106.376L355.279 106.362L354.781 106.312ZM354.906 105.062L354.409 105.01L354.409 105.013L354.906 105.062ZM354.844 102.5L354.349 102.571L354.35 102.582L354.353 102.594L354.844 102.5ZM354.438 101.406L354.021 101.684L354.026 101.69L354.031 101.697L354.438 101.406ZM349.969 100.969L349.811 100.494L349.807 100.496L349.969 100.969ZM347.656 101.938L347.433 101.49L347.425 101.494L347.656 101.938ZM344.125 104.375L343.771 104.021L344.349 104.822L344.125 104.375ZM344.188 104.344L344.687 104.343L344.686 103.535L343.964 103.897L344.188 104.344ZM344.219 125.312H344.719L344.719 125.312L344.219 125.312ZM344.303 129.164C344.692 129.63 345.199 129.926 345.804 130.052L346.008 129.073C345.613 128.991 345.308 128.808 345.072 128.524L344.303 129.164ZM345.827 130.056C346.394 130.147 347.508 130.188 349.125 130.188V129.188C347.492 129.188 346.46 129.145 345.985 129.069L345.827 130.056ZM349.125 130.188C350.768 130.188 352.09 130.062 353.069 129.795L352.806 128.83C351.952 129.063 350.732 129.188 349.125 129.188V130.188ZM352.438 129.283L352.22 132.97L353.218 133.03L353.437 129.342L352.438 129.283ZM352.719 132.5H332.594V133.5H352.719V132.5ZM333.089 133.065L333.527 129.753L332.536 129.622L332.098 132.935L333.089 133.065ZM333.031 130.188C333.973 130.188 334.774 130.105 335.421 129.927C336.066 129.751 336.601 129.468 336.952 129.033L336.173 128.405C336.003 128.616 335.69 128.817 335.157 128.963C334.627 129.108 333.923 129.188 333.031 129.188V130.188ZM336.952 129.032C338.004 127.724 338.469 125.509 338.469 122.531H337.469C337.469 125.47 336.996 127.381 336.173 128.406L336.952 129.032ZM338.469 122.531V107.469H337.469V122.531H338.469ZM338.469 107.469C338.469 106.049 338.395 104.88 338.243 103.972C338.094 103.085 337.858 102.365 337.47 101.921L336.717 102.579C336.912 102.802 337.114 103.284 337.257 104.137C337.396 104.969 337.469 106.076 337.469 107.469H338.469ZM337.473 101.924C337.065 101.45 336.451 101.115 335.694 100.882C334.934 100.647 333.989 100.502 332.872 100.438L332.815 101.437C333.886 101.498 334.743 101.635 335.399 101.837C336.06 102.041 336.477 102.3 336.715 102.576L337.473 101.924ZM333.341 100.992L333.778 96.9919L332.784 96.8831L332.347 100.883L333.341 100.992ZM333.356 97.4319L344.574 95.7444L344.426 94.7556L333.207 96.4431L333.356 97.4319ZM344.005 95.1821C343.793 96.7306 343.688 98.4936 343.688 100.469H344.688C344.688 98.5273 344.791 96.8111 344.995 95.3179L344.005 95.1821ZM344.532 100.831C346.668 98.7969 349.17 97.26 352.045 96.2202L351.705 95.2798C348.705 96.365 346.082 97.974 343.843 100.107L344.532 100.831ZM352.036 96.2234C353.035 95.8839 353.97 95.7188 354.844 95.7188V94.7188C353.843 94.7188 352.799 94.9078 351.714 95.2766L352.036 96.2234ZM354.844 95.7188C356.78 95.7188 358.139 96.1511 359.011 96.9281C359.873 97.6952 360.344 98.8743 360.344 100.562H361.344C361.344 98.6882 360.815 97.1954 359.676 96.1813C358.549 95.177 356.907 94.7188 354.844 94.7188V95.7188ZM360.344 100.562C360.344 102.619 360.048 104.838 359.452 107.222L360.423 107.465C361.035 105.016 361.344 102.714 361.344 100.562H360.344ZM359.452 107.222C359.41 107.39 359.383 107.487 359.369 107.529L360.318 107.846C360.346 107.763 360.381 107.631 360.423 107.465L359.452 107.222ZM359.397 107.464C359.374 107.509 359.312 107.633 359.312 107.781H360.312C360.312 107.816 360.308 107.844 360.305 107.862C360.301 107.88 360.297 107.893 360.295 107.9C360.29 107.914 360.287 107.919 360.291 107.911L359.397 107.464ZM359.812 107.281H354.594V108.281H359.812V107.281ZM355.09 107.845L355.277 106.376L354.285 106.249L354.098 107.718L355.09 107.845ZM355.279 106.362L355.404 105.112L354.409 105.013L354.284 106.263L355.279 106.362ZM355.404 105.115C355.447 104.7 355.469 104.266 355.469 103.812H354.469C354.469 104.234 354.449 104.633 354.409 105.01L355.404 105.115ZM355.469 103.812C355.469 103.343 355.424 102.874 355.335 102.406L354.353 102.594C354.43 103.001 354.469 103.407 354.469 103.812H355.469ZM355.339 102.429C355.267 101.931 355.109 101.486 354.844 101.116L354.031 101.697C354.183 101.91 354.295 102.194 354.349 102.571L355.339 102.429ZM354.854 101.129C354.357 100.384 353.534 100.062 352.531 100.062V101.062C353.32 101.062 353.768 101.304 354.021 101.684L354.854 101.129ZM352.531 100.062C351.584 100.062 350.676 100.206 349.811 100.494L350.127 101.443C350.886 101.19 351.687 101.062 352.531 101.062V100.062ZM349.807 100.496C348.994 100.774 348.203 101.105 347.433 101.49L347.88 102.385C348.61 102.02 349.36 101.705 350.131 101.442L349.807 100.496ZM347.425 101.494C345.878 102.3 344.653 103.14 343.771 104.021L344.479 104.729C345.263 103.944 346.393 103.159 347.887 102.381L347.425 101.494ZM344.349 104.822L344.411 104.791L343.964 103.897L343.901 103.928L344.349 104.822ZM343.688 104.344L343.719 125.313L344.719 125.312L344.687 104.343L343.688 104.344ZM343.719 125.312C343.719 126.312 343.758 127.126 343.84 127.745C343.881 128.055 343.935 128.328 344.004 128.557C344.071 128.778 344.163 128.995 344.303 129.164L345.072 128.524C345.056 128.505 345.011 128.434 344.961 128.268C344.913 128.108 344.869 127.893 344.832 127.614C344.758 127.057 344.719 126.292 344.719 125.312H343.719Z" fill="#CACACA"/>
</g>
</g>
<defs>
<filter id="filter0_d" x="0.53125" y="35.4531" width="364.812" height="121.922" filterUnits="userSpaceOnUse" color-interpolation-filters="sRGB">
<feFlood flood-opacity="0" result="BackgroundImageFix"/>
<feColorMatrix in="SourceAlpha" type="matrix" values="0 0 0 0 0 0 0 0 0 0 0 0 0 0 0 0 0 0 127 0"/>
<feOffset dy="4"/>
<feGaussianBlur stdDeviation="2"/>
<feColorMatrix type="matrix" values="0 0 0 0 0 0 0 0 0 0 0 0 0 0 0 0 0 0 0.25 0"/>
<feBlend mode="normal" in2="BackgroundImageFix" result="effect1_dropShadow"/>
<feBlend mode="normal" in="SourceGraphic" in2="effect1_dropShadow" result="shape"/>
</filter>
<filter id="filter1_d" x="0.53125" y="35.4531" width="98.1406" height="111.797" filterUnits="userSpaceOnUse" color-interpolation-filters="sRGB">
<feFlood flood-opacity="0" result="BackgroundImageFix"/>
<feColorMatrix in="SourceAlpha" type="matrix" values="0 0 0 0 0 0 0 0 0 0 0 0 0 0 0 0 0 0 127 0"/>
<feOffset dy="5"/>
<feGaussianBlur stdDeviation="2"/>
<feColorMatrix type="matrix" values="0 0 0 0 0 0 0 0 0 0 0 0 0 0 0 0 0 0 0.25 0"/>
<feBlend mode="normal" in2="BackgroundImageFix" result="effect1_dropShadow"/>
<feBlend mode="normal" in="SourceGraphic" in2="effect1_dropShadow" result="shape"/>
</filter>
<filter id="filter2_d" x="72.9375" y="79.124" width="292.406" height="78.2509" filterUnits="userSpaceOnUse" color-interpolation-filters="sRGB">
<feFlood flood-opacity="0" result="BackgroundImageFix"/>
<feColorMatrix in="SourceAlpha" type="matrix" values="0 0 0 0 0 0 0 0 0 0 0 0 0 0 0 0 0 0 127 0"/>
<feOffset dy="4"/>
<feGaussianBlur stdDeviation="2"/>
<feColorMatrix type="matrix" values="0 0 0 0 0 0 0 0 0 0 0 0 0 0 0 0 0 0 0.25 0"/>
<feBlend mode="normal" in2="BackgroundImageFix" result="effect1_dropShadow"/>
<feBlend mode="normal" in="SourceGraphic" in2="effect1_dropShadow" result="shape"/>
</filter>
</defs>
</svg>
